<svg width="93" height="72" viewBox="0 0 93 72" fill="none" xmlns="http://www.w3.org/2000/svg">
<path fill-rule="evenodd" clip-rule="evenodd" d="M85.2195 21.15C87.098 25.7114 88.0595 30.598 88.0492 35.531C88.0389 40.4639 87.057 45.3466 85.1595 49.9L69.3195 40.74L67.8695 39.86C67.3295 39.52 66.8696 39.27 66.5396 39.04L65.2896 38.25C64.9196 38.02 64.5795 37.77 64.2195 37.54L63.2195 36.86L62.3395 36.21C62.0895 36.01 61.8295 35.81 61.5795 35.58C61.4595 35.5 61.3795 35.41 61.2695 35.33C62.0333 34.6462 62.868 34.0462 63.7595 33.54L85.2195 21.15Z" fill="url(#paint0_radial)"/>
<path fill-rule="evenodd" clip-rule="evenodd" d="M69.3198 40.74L87.5698 51.29C88.8039 51.9979 89.8526 52.9883 90.6298 54.18C91.3433 55.3301 91.8508 56.5957 92.1298 57.92C92.4362 59.365 92.6169 60.8338 92.6698 62.31C92.7298 63.82 92.6698 65.37 92.6698 66.96V71.1L61.3498 52.99C55.1398 49.42 55.3499 40.6 61.2999 35.33C61.4099 35.41 61.4898 35.5 61.6098 35.58C61.8598 35.81 62.1198 36.01 62.3698 36.21L63.2498 36.86L64.2498 37.54C64.6098 37.77 64.9498 38.02 65.3198 38.25L66.5698 39.04C66.9098 39.27 67.3598 39.52 67.8998 39.86L69.3198 40.74Z" fill="url(#paint1_linear)"/>
<path fill-rule="evenodd" clip-rule="evenodd" d="M61.3495 52.99L58.0595 51.09C57.4822 50.7629 56.9246 50.4023 56.3895 50.01C55.8463 49.6357 55.3346 49.2176 54.8595 48.76C54.3764 48.3268 53.9221 47.8624 53.4995 47.37C53.0543 46.8919 52.6465 46.3804 52.2795 45.84C51.7908 45.1478 51.3562 44.419 50.9795 43.66C50.5904 42.9119 50.2562 42.1366 49.9795 41.34C49.7195 40.51 49.4895 39.69 49.3195 38.87C49.1719 38.0268 49.0784 37.1751 49.0395 36.32C48.9995 35.4696 49.0196 34.6175 49.0995 33.77C49.1785 32.921 49.3189 32.0788 49.5195 31.25C49.7201 30.42 49.9774 29.6048 50.2895 28.81C50.6055 28.0298 50.9729 27.2714 51.3895 26.54C51.6819 25.9694 52.0162 25.4213 52.3895 24.9C52.7419 24.3997 53.1296 23.9251 53.5495 23.48L53.6395 23.39C54.0595 22.91 54.5495 22.46 55.0295 22C55.5156 21.5736 56.0265 21.1762 56.5595 20.81H56.6195L91.6195 0.589996L92.6195 0V3.73999C92.7712 6.81127 92.5834 9.88992 92.0595 12.92C91.7836 14.3173 91.255 15.6526 90.4995 16.86C89.7193 18.0861 88.6474 19.0997 87.3795 19.81L63.7895 33.54C55.5395 38.3 54.3495 48.96 61.3495 52.99Z" fill="url(#paint2_linear)"/>
<path fill-rule="evenodd" clip-rule="evenodd" d="M77.17 8.93994C80.6008 12.4661 83.3173 16.6224 85.17 21.1799L63.77 33.5399C55.52 38.2999 54.33 48.9599 61.33 52.9899L58.04 51.0899C57.4627 50.7628 56.9051 50.4022 56.37 50.0099C55.8268 49.6356 55.3151 49.2176 54.84 48.7599C54.3569 48.3267 53.9026 47.8624 53.48 47.3699C53.0349 46.8918 52.627 46.3803 52.26 45.8399C51.7713 45.1477 51.3367 44.4189 50.96 43.6599C50.5708 42.9119 50.2366 42.1365 49.96 41.3399C49.7 40.5099 49.47 39.6899 49.3 38.8699C49.1524 38.0268 49.0589 37.175 49.02 36.3199C48.98 35.4696 49 34.6175 49.08 33.7699C49.159 32.9209 49.2993 32.0787 49.5 31.2499C49.7006 30.42 49.9579 29.6047 50.27 28.8099C50.586 28.0297 50.9534 27.2714 51.37 26.5399C51.6624 25.9693 51.9966 25.4212 52.37 24.8999C52.7223 24.3996 53.11 23.925 53.53 23.4799L53.62 23.3899C54.04 22.9099 54.53 22.4599 55.01 21.9999C55.4961 21.5735 56.007 21.1761 56.54 20.8099H56.6L77.17 8.93994Z" fill="url(#paint3_linear)"/>
<path fill-rule="evenodd" clip-rule="evenodd" d="M85.1597 49.9C83.2947 54.4362 80.5792 58.5739 77.1597 62.09L61.3996 52.99C55.1896 49.42 55.3997 40.6 61.3497 35.33C61.4597 35.41 61.5397 35.5 61.6597 35.58C61.9097 35.81 62.1697 36.01 62.4197 36.21L63.2997 36.86L64.2997 37.5399C64.6597 37.7699 64.9996 38.02 65.3696 38.25L66.6196 39.0399C66.9596 39.2699 67.4096 39.52 67.9496 39.86L69.3996 40.74L85.1597 49.9Z" fill="url(#paint4_linear)"/>
<path d="M10.688 44.8162C10.7821 44.8189 10.8752 44.8353 10.9645 44.8648C11.0279 44.6666 11.0755 44.521 11.1082 44.4239C10.9782 44.3574 10.834 44.3234 10.688 44.3248C10.4915 44.3242 10.2995 44.384 10.1381 44.4962C9.97247 44.6059 9.83635 44.7546 9.74172 44.9292C9.64995 45.0939 9.60057 45.2788 9.59804 45.4673C9.59318 45.5369 9.60503 45.6067 9.63261 45.6708C9.66019 45.7349 9.70269 45.7915 9.75658 45.8359C9.89091 45.9277 10.0519 45.9723 10.2144 45.9627H10.4601C10.5017 45.9606 10.5434 45.9606 10.585 45.9627C10.6023 45.9632 10.6193 45.9665 10.6355 45.9726C10.6384 45.9744 10.6407 45.9769 10.6423 45.9798C10.6438 45.9828 10.6446 45.9861 10.6444 45.9895C10.6427 46.0484 10.627 46.1062 10.5986 46.1578C10.5702 46.2095 10.5298 46.2537 10.4809 46.2867C10.3558 46.3818 10.2119 46.4493 10.0588 46.4849C9.87637 46.5325 9.68846 46.5558 9.49994 46.5543C9.17624 46.5543 8.93645 46.4909 8.78054 46.364C8.62464 46.2372 8.54669 46.0423 8.54669 45.7794C8.55576 45.4733 8.62795 45.1724 8.75874 44.8955L8.77955 44.8529C8.68046 44.8162 8.54273 44.7608 8.37527 44.6855C8.2007 45.0262 8.10231 45.4008 8.08691 45.7834C8.08691 46.1936 8.21012 46.5051 8.45652 46.7178C8.70292 46.9305 9.04974 47.0372 9.49697 47.0378C9.70263 47.0389 9.90764 47.0146 10.1074 46.9655C10.2844 46.922 10.4533 46.8504 10.6078 46.7534C10.7481 46.6641 10.865 46.5425 10.9486 46.3987C11.0329 46.2506 11.076 46.0826 11.0735 45.9122C11.0785 45.8509 11.0686 45.7893 11.0446 45.7327C11.0206 45.6761 10.9833 45.6262 10.9358 45.5872C10.8071 45.5099 10.6573 45.4752 10.5077 45.4881H10.252C10.1173 45.4881 10.0539 45.4653 10.0539 45.4197C10.0574 45.2645 10.1223 45.117 10.2342 45.0095C10.2916 44.9467 10.3618 44.8969 10.4401 44.8636C10.5184 44.8302 10.603 44.8141 10.688 44.8162Z" fill="#808285"/>
<path d="M23.6101 45.4718C23.6028 45.4725 23.5957 45.4749 23.5893 45.4787V45.4718H18.833C18.8048 45.4713 18.7766 45.4686 18.7488 45.4638L18.6893 45.4529C18.6742 45.449 18.6603 45.4415 18.6487 45.4311C18.6381 45.4228 18.6291 45.4128 18.6219 45.4014C18.6146 45.3884 18.6093 45.3744 18.6061 45.3598C18.6008 45.3427 18.5975 45.3251 18.5962 45.3073C18.5962 45.2924 18.5962 45.2686 18.5882 45.2359C18.5803 45.2032 18.5803 45.1765 18.5783 45.1527C18.5576 45.0099 18.5131 44.8715 18.4465 44.7434C18.3852 44.6239 18.297 44.5201 18.1889 44.4402C18.0866 44.3644 17.9626 44.3234 17.8352 44.3233C17.6063 44.3233 17.415 44.4501 17.2634 44.7038C17.1861 44.8313 17.0748 45.043 16.9295 45.339C16.9141 45.3788 16.8868 45.4131 16.8514 45.437C16.816 45.4609 16.774 45.4734 16.7313 45.4727H16.5034C16.461 45.4749 16.4188 45.4676 16.3795 45.4515C16.3403 45.4354 16.3051 45.4109 16.2765 45.3796C16.2166 45.2973 16.185 45.1979 16.1863 45.0962L16.1665 44.7989V44.7484L15.7344 44.7781V44.8604L15.7235 45.0982C15.7258 45.1502 15.717 45.2022 15.6979 45.2507C15.6788 45.2991 15.6497 45.3431 15.6126 45.3796C15.517 45.4486 15.4 45.4812 15.2826 45.4718H14.1074H13.7754C13.5673 45.4638 13.3929 45.3102 13.2532 45.008L12.6696 43.7555L12.6468 43.7099L12.6052 43.7367L12.2802 43.9507L12.2475 43.9735L12.2653 44.0082L12.8103 45.1398C12.8294 45.1752 12.8403 45.2145 12.842 45.2548C12.842 45.3231 12.7687 45.3836 12.623 45.4371C12.4636 45.4917 12.296 45.5185 12.1276 45.5163C11.9027 45.5185 11.6798 45.4733 11.4736 45.3836L11.4102 45.3548V45.876L11.4389 45.8869C11.6663 45.9698 11.9063 46.013 12.1484 46.0148C12.2948 46.0162 12.4411 46.0043 12.5854 45.9791C12.7017 45.9581 12.8147 45.9214 12.9213 45.8701C13.0145 45.8244 13.0987 45.7623 13.17 45.6868C13.2415 45.7752 13.3322 45.8463 13.4352 45.8945C13.5382 45.9427 13.6508 45.9669 13.7645 45.9652H15.2697C15.3949 45.9688 15.5195 45.9467 15.6357 45.9002C15.752 45.8536 15.8574 45.7837 15.9455 45.6947C16.021 45.7751 16.109 45.8427 16.2061 45.8949C16.2938 45.9385 16.3906 45.9606 16.4885 45.9593H16.6956C16.7654 45.9604 16.8349 45.9507 16.9017 45.9306C16.9531 45.915 17.0016 45.8913 17.0454 45.8602C17.0923 45.8232 17.1366 45.7831 17.1782 45.7403C17.2119 45.771 17.2505 45.7998 17.2902 45.8295C17.3298 45.8592 17.3893 45.8929 17.4556 45.9286C17.5274 45.9713 17.6043 46.0046 17.6845 46.0277C17.7648 46.0525 17.8483 46.0652 17.9323 46.0653C18.0044 46.0654 18.0761 46.055 18.1453 46.0346C18.2099 46.0161 18.2706 45.9863 18.3247 45.9464C18.3772 45.9076 18.4233 45.8608 18.4614 45.8077C18.5971 45.9132 18.7663 45.9663 18.938 45.9573H23.5893V45.9504C23.5957 45.9541 23.6028 45.9565 23.6101 45.9573H23.9728L23.6349 45.4618L23.6101 45.4718ZM18.0849 45.5471C18.063 45.5711 18.0362 45.59 18.0062 45.6025C17.9762 45.615 17.9439 45.6208 17.9115 45.6194C17.7707 45.6194 17.5983 45.5322 17.3972 45.3598C17.4575 45.2315 17.5257 45.1071 17.6013 44.9872C17.6707 44.8742 17.742 44.8188 17.8134 44.8188C17.8459 44.8212 17.8775 44.8306 17.906 44.8463C17.9346 44.862 17.9594 44.8837 17.9788 44.9099C18.0848 45.0345 18.1452 45.1914 18.1503 45.3548C18.1558 45.4245 18.1337 45.4935 18.0888 45.5471H18.0849Z" fill="#808285"/>
<path d="M28.0506 44.2882L27.1152 43.6818L26.8744 44.0534L27.0726 44.1812C27.0092 44.2078 26.9487 44.241 26.8922 44.2803C26.8334 44.323 26.779 44.3715 26.7297 44.425C26.6786 44.4787 26.6341 44.5382 26.597 44.6023C26.5578 44.6684 26.5275 44.7394 26.5068 44.8134C26.4843 44.889 26.473 44.9674 26.4731 45.0462C26.4734 45.1973 26.5193 45.3448 26.6049 45.4694H25.7408C25.7365 45.344 25.7229 45.2191 25.7002 45.0958C25.679 44.9839 25.6457 44.8746 25.6011 44.7698C25.5617 44.6758 25.509 44.5881 25.4445 44.5092C25.3833 44.4366 25.3069 44.3784 25.2206 44.3388C25.1273 44.2964 25.0257 44.2754 24.9233 44.2773C24.8313 44.2771 24.7403 44.2971 24.6568 44.3358C24.5742 44.3735 24.4998 44.427 24.4378 44.4933C24.3739 44.562 24.3196 44.639 24.2763 44.7222C24.2295 44.8094 24.1945 44.9023 24.1722 44.9987C24.1487 45.0961 24.1361 45.1958 24.1346 45.296C24.129 45.4311 24.1634 45.5649 24.2337 45.6804C24.3059 45.7836 24.4105 45.8596 24.5309 45.8965C24.6961 45.9458 24.868 45.9685 25.0402 45.9638H25.2682C25.1565 46.4117 24.7384 46.6651 24.0137 46.7239L24.0355 46.7803L24.1593 47.0845L24.1722 47.1133H24.1792C24.3461 47.1138 24.5125 47.0938 24.6746 47.0538C24.8142 47.0177 24.9477 46.9613 25.071 46.8864C25.1816 46.8164 25.2817 46.731 25.3682 46.6327C25.4532 46.5391 25.5239 46.4336 25.5783 46.3196C25.6315 46.2063 25.6701 46.0868 25.6933 45.9638H26.2541C26.5578 45.9692 26.8605 45.9264 27.1509 45.837C27.4645 45.9699 27.8011 46.0402 28.1418 46.0441C28.2353 46.0478 28.3286 46.0328 28.4162 46C28.5039 45.9671 28.584 45.9171 28.6521 45.8529C28.7187 45.7858 28.7707 45.7056 28.8048 45.6174C28.8389 45.5293 28.8544 45.435 28.8503 45.3405C28.8588 45.001 28.5923 44.6502 28.0506 44.2882ZM25.0531 45.4912C24.9897 45.4912 24.9342 45.4912 24.8916 45.4912C24.8479 45.4883 24.8045 45.482 24.7618 45.4723C24.7261 45.4643 24.6924 45.4492 24.6627 45.4278C24.6373 45.407 24.6173 45.3805 24.6042 45.3505C24.589 45.313 24.5816 45.2729 24.5824 45.2326C24.5817 45.1167 24.6163 45.0033 24.6815 44.9075C24.705 44.8645 24.7391 44.8282 24.7806 44.802C24.822 44.7758 24.8694 44.7607 24.9184 44.7579C24.9773 44.7571 25.0352 44.7732 25.0852 44.8043C25.1353 44.8353 25.1754 44.8801 25.2008 44.9333C25.2783 45.108 25.3143 45.2983 25.3058 45.4892C25.2097 45.4892 25.1255 45.4912 25.0531 45.4912ZM27.4779 45.0889C27.3991 45.2033 27.2909 45.2944 27.1647 45.3524C27.0102 45.296 26.9319 45.2008 26.9319 45.0661C26.9359 44.9291 26.9886 44.7981 27.0805 44.6965C27.1163 44.645 27.1632 44.6023 27.2178 44.5714C27.2723 44.5405 27.3331 44.5223 27.3956 44.5181C27.4559 44.5149 27.5154 44.5335 27.5631 44.5706C27.5838 44.5908 27.5999 44.6153 27.6102 44.6423C27.6204 44.6694 27.6247 44.6983 27.6225 44.7272C27.6143 44.8601 27.5635 44.9869 27.4779 45.0889ZM28.3578 45.5209C28.2801 45.5678 28.1896 45.589 28.0992 45.5814C27.9498 45.5765 27.8017 45.5528 27.6582 45.511C27.7616 45.4228 27.8465 45.3149 27.9079 45.1936C27.9693 45.0723 28.006 44.9401 28.0159 44.8045C28.1338 44.8894 28.24 44.9893 28.332 45.1017C28.3919 45.1683 28.4288 45.2524 28.4371 45.3415C28.4394 45.3756 28.4334 45.4098 28.4196 45.441C28.4058 45.4723 28.3846 45.4997 28.3578 45.5209Z" fill="#808285"/>
<path d="M31.1 44.6214L30.7522 44.2706L30.4004 44.6214L30.7522 44.9702L31.1 44.6214Z" fill="#808285"/>
<path d="M16.2924 44.2645L15.9436 43.9137L15.5918 44.2645L15.9436 44.6123L16.2924 44.2645Z" fill="#808285"/>
<path d="M21.0816 44.3189L21.3779 44.6123L21.6841 44.3061L21.9932 44.6123L22.342 44.2645L21.9932 43.9137L21.6841 44.2218L21.3779 43.9137L21.0816 44.209L20.7883 43.9137L20.4375 44.2645L20.7883 44.6123L21.0816 44.3189Z" fill="#808285"/>
<path d="M32.601 45.9549H32.9786V43.1536L32.502 43.2903L32.601 45.9549Z" fill="#808285"/>
<path d="M38.4476 45.9631H38.7934C38.8291 45.9631 39.5971 45.9631 39.6337 45.9631L39.39 45.4676H38.4496C38.3267 45.4676 38.2009 45.3953 38.0691 45.2506L36.661 43.686L37.9195 43.2133V42.7268L36.3092 43.3322C36.2756 43.3451 36.2458 43.3976 36.225 43.4918C36.2073 43.5638 36.1944 43.637 36.1864 43.7108C36.1864 43.7613 36.1864 43.8099 36.1864 43.8396L36.1973 43.8535L37.0663 44.8265C37.146 44.9022 37.1953 45.0044 37.205 45.1139C37.205 45.3497 37.0277 45.4676 36.6709 45.4676H33.7161C33.6596 45.4676 33.6318 45.536 33.6318 45.6728V45.75C33.6318 45.8888 33.6606 45.9591 33.7161 45.9591H36.5897C37.1367 45.9591 37.4709 45.7742 37.5925 45.4042C37.8897 45.7748 38.1721 45.9598 38.4397 45.9591L38.4476 45.9631Z" fill="#808285"/>
<path d="M31.8979 44.5924L31.8553 44.6123L31.5085 44.8025L31.4728 44.8253L31.4907 44.8639C31.6433 45.183 31.7245 45.4406 31.7245 45.6428C31.7245 45.9282 31.6439 46.1405 31.4827 46.2799C31.3212 46.4187 31.0735 46.489 30.7386 46.489C30.4268 46.489 30.1956 46.423 30.0449 46.2908C29.8943 46.1587 29.819 45.9569 29.819 45.6854C29.8379 45.4267 29.8974 45.1725 29.9954 44.9323L30.0112 44.8887L29.9686 44.8729L29.6357 44.75L29.5951 44.7371L29.5802 44.7748C29.4484 45.074 29.3767 45.3962 29.3691 45.7231C29.3691 46.1283 29.491 46.4375 29.7318 46.6476C29.9726 46.8576 30.3075 46.9666 30.7336 46.9666C31.1954 46.9666 31.5511 46.8527 31.8008 46.6277C32.0505 46.4028 32.1754 46.0699 32.1754 45.6309C32.1676 45.2832 32.0794 44.942 31.9177 44.6341L31.8979 44.5924Z" fill="#808285"/>
<path d="M38.9611 46.3604L38.9482 46.3465L38.9363 46.3604L38.6261 46.6686L38.6143 46.6815L38.6261 46.6934L38.9363 47.0045L38.9482 47.0154L38.9611 47.0045L39.2702 46.6934L39.2831 46.6815L39.2702 46.6686L38.9611 46.3604Z" fill="#808285"/>
<path d="M38.2706 46.3604L38.2568 46.3465L38.2459 46.3604L37.9357 46.6686L37.9238 46.6815L37.9357 46.6934L38.2459 47.0045L38.2568 47.0154L38.2706 47.0045L38.5788 46.6934L38.5927 46.6815L38.5788 46.6686L38.2706 46.3604Z" fill="#808285"/>
<path d="M32.8485 42.4749L32.5512 42.4214C32.3312 42.3828 32.141 42.4908 31.9834 42.7444L32.1727 43.014C32.2836 42.8515 32.4095 42.7752 32.5492 42.791L32.8752 42.8267C32.9755 42.8405 33.0777 42.8317 33.1742 42.801C33.2707 42.7704 33.3591 42.7185 33.4331 42.6493L33.2864 42.3521C33.1101 42.4521 32.9654 42.4957 32.8485 42.4749Z" fill="#808285"/>
<path fill-rule="evenodd" clip-rule="evenodd" d="M24.5304 25.0976L20.5915 27.1785V30.1878C20.4132 31.4552 19.8355 31.9249 18.4115 31.8724H14.2498C12.6782 31.8724 11.932 31.2838 11.932 29.8331V17.8402L7.99023 19.9211V25.3433L8.74134 26.0548C10.7182 28.3031 10.8044 31.7317 9.25165 34.1078C10.1167 35.1612 11.4624 35.8419 13.3926 35.8419H19.9623C24.1419 35.8419 24.5343 31.149 24.5343 30.1829L24.5304 25.0976Z" fill="#023F87"/>
<path fill-rule="evenodd" clip-rule="evenodd" d="M8.17394 26.6376L4.65624 23.3023L1.99171 25.9668L4.86532 28.8404C6.1089 30.084 5.40933 31.8547 3.76542 31.8547H0V35.8342H4.18061C9.33032 35.8362 10.9891 29.8422 8.17394 26.6376Z" fill="#023F87"/>
<path d="M46.0087 30.6386H44.7572C43.8105 30.6386 43.043 31.4061 43.043 32.3528V33.6043C43.043 34.5511 43.8105 35.3186 44.7572 35.3186H46.0087C46.9555 35.3186 47.723 34.5511 47.723 33.6043V32.3528C47.723 31.4061 46.9555 30.6386 46.0087 30.6386Z" fill="#023F87"/>
<path d="M46.0087 36.2104H44.7572C43.8105 36.2104 43.043 36.9779 43.043 37.9247V39.1762C43.043 40.1229 43.8105 40.8904 44.7572 40.8904H46.0087C46.9555 40.8904 47.723 40.1229 47.723 39.1762V37.9247C47.723 36.9779 46.9555 36.2104 46.0087 36.2104Z" fill="#023F87"/>
<path d="M46.0087 25.0671H44.7572C43.8105 25.0671 43.043 25.8346 43.043 26.7813V28.0328C43.043 28.9796 43.8105 29.7471 44.7572 29.7471H46.0087C46.9555 29.7471 47.723 28.9796 47.723 28.0328V26.7813C47.723 25.8346 46.9555 25.0671 46.0087 25.0671Z" fill="#023F87"/>
<path d="M15.1796 36.2104H13.9281C12.9814 36.2104 12.2139 36.9779 12.2139 37.9247V39.1762C12.2139 40.1229 12.9814 40.8904 13.9281 40.8904H15.1796C16.1264 40.8904 16.8939 40.1229 16.8939 39.1762V37.9247C16.8939 36.9779 16.1264 36.2104 15.1796 36.2104Z" fill="#023F87"/>
<path d="M9.60834 36.2104H8.35684C7.41008 36.2104 6.64258 36.9779 6.64258 37.9247V39.1762C6.64258 40.1229 7.41008 40.8904 8.35684 40.8904H9.60834C10.5551 40.8904 11.3226 40.1229 11.3226 39.1762V37.9247C11.3226 36.9779 10.5551 36.2104 9.60834 36.2104Z" fill="#023F87"/>
<path d="M20.7509 36.2104H19.4994C18.5527 36.2104 17.7852 36.9779 17.7852 37.9247V39.1762C17.7852 40.1229 18.5527 40.8904 19.4994 40.8904H20.7509C21.6977 40.8904 22.4652 40.1229 22.4652 39.1762V37.9247C22.4652 36.9779 21.6977 36.2104 20.7509 36.2104Z" fill="#023F87"/>
<path fill-rule="evenodd" clip-rule="evenodd" d="M38.4649 30.1563C38.2865 31.4237 37.7089 31.8934 36.2849 31.8409H32.4482H27.6453C23.4656 31.8409 23.0732 35.5686 23.0732 36.5338C23.0732 37.4989 23.4696 40.8779 27.6453 40.8779H42.3968L38.3183 36.9083H34.3913H27.569C27.4213 36.9083 27.2796 36.8497 27.1752 36.7452C27.0707 36.6408 27.0121 36.4991 27.0121 36.3514C27.0121 36.2037 27.0707 36.0621 27.1752 35.9577C27.2796 35.8532 27.4213 35.7945 27.569 35.7945H34.3864C34.4196 35.795 34.4528 35.7984 34.4855 35.8045H37.8278C42.0074 35.8045 42.3998 31.1106 42.3998 30.1454V25.0561L38.4609 27.137L38.4649 30.1563Z" fill="#023F87"/>
<defs>
<radialGradient id="paint0_radial" cx="0" cy="0" r="1" gradientUnits="userSpaceOnUse" gradientTransform="translate(94.5503 36.5) rotate(-179.31) scale(41.503 38.6588)">
<stop stop-color="#C9C9CB"/>
<stop offset="0.375774" stop-color="#E7E7E8"/>
<stop offset="1" stop-color="white"/>
</radialGradient>
<linearGradient id="paint1_linear" x1="61.5508" y1="35" x2="82.0508" y2="59" gradientUnits="userSpaceOnUse">
<stop stop-color="#C44109"/>
<stop offset="1" stop-color="#FBB82C"/>
</linearGradient>
<linearGradient id="paint2_linear" x1="52.5503" y1="49.5" x2="92.5503" y2="1.00003" gradientUnits="userSpaceOnUse">
<stop stop-color="#2957A4"/>
<stop offset="1" stop-color="#264C8B"/>
</linearGradient>
<linearGradient id="paint3_linear" x1="50.5508" y1="39.5" x2="85.164" y2="9.88047" gradientUnits="userSpaceOnUse">
<stop stop-color="#2957A4"/>
<stop offset="1" stop-color="#1D629B" stop-opacity="0.62"/>
</linearGradient>
<linearGradient id="paint4_linear" x1="58.5505" y1="36" x2="86.5505" y2="63" gradientUnits="userSpaceOnUse">
<stop offset="0.267001" stop-color="#C44109"/>
<stop offset="1" stop-color="#FBB82C"/>
</linearGradient>
</defs>
</svg>
